<svg width="975" height="199" viewBox="0 0 975 199" fill="none" xmlns="http://www.w3.org/2000/svg">
<g filter="url(#filter0_b_169_6)">
<path d="M0.840001 -1.33514e-05H120.96V39.76H42.28V80.64H112.28V120.4H42.28V196H0.840001V-1.33514e-05ZM221.141 198.52C176.341 198.52 143.301 165.2 143.301 120.12V-1.33514e-05H184.741V120.12C184.741 141.96 200.421 158.2 221.141 158.2C241.861 158.2 257.261 141.96 257.261 120.12V-1.33514e-05H298.701V120.12C298.701 165.2 265.661 198.52 221.141 198.52ZM418.298 196H376.858V39.76H319.738V-1.33514e-05H475.698V39.76H418.298V196ZM574.149 198.52C529.349 198.52 496.309 165.2 496.309 120.12V-1.33514e-05H537.749V120.12C537.749 141.96 553.429 158.2 574.149 158.2C594.869 158.2 610.269 141.96 610.269 120.12V-1.33514e-05H651.709V120.12C651.709 165.2 618.669 198.52 574.149 198.52ZM681.426 196V-1.33514e-05H757.026C790.066 -1.33514e-05 818.906 26.88 818.906 60.48C818.906 85.68 806.866 105.28 787.546 114.8L838.786 196H788.386L744.146 121.24H722.866V196H681.426ZM722.866 81.48H755.626C767.666 81.48 776.906 72.24 776.906 60.48C776.906 48.72 767.666 40.04 755.626 40.04H722.866V81.48ZM854.238 -1.33514e-05H974.358V39.76H895.678V75.04H965.678V114.8H895.678V156.24H974.358V196H854.238V-1.33514e-05Z" fill="#F0F0F0"/>
</g>
<defs>
<filter id="filter0_b_169_6" x="-469.169" y="-470.009" width="1913.54" height="1138.54" filterUnits="userSpaceOnUse" color-interpolation-filters="sRGB">
<feFlood flood-opacity="0" result="BackgroundImageFix"/>
<feGaussianBlur in="BackgroundImageFix" stdDeviation="235.004"/>
<feComposite in2="SourceAlpha" operator="in" result="effect1_backgroundBlur_169_6"/>
<feBlend mode="normal" in="SourceGraphic" in2="effect1_backgroundBlur_169_6" result="shape"/>
</filter>
</defs>
</svg>
