<svg width="229" height="498" viewBox="0 0 229 498" fill="none" xmlns="http://www.w3.org/2000/svg">
<path d="M228.5 1.26636C228.5 0.990215 228.276 0.766357 228 0.766357C227.724 0.766357 227.5 0.990215 227.5 1.26636H228.5ZM227.5 1.26636V274.139H228.5V1.26636H227.5ZM206 295.639H23V296.639H206V295.639ZM0.5 318.139V497.96H1.5V318.139H0.5ZM23 295.639C10.5736 295.639 0.5 305.713 0.5 318.139H1.5C1.5 306.265 11.1259 296.639 23 296.639V295.639ZM227.5 274.139C227.5 286.013 217.874 295.639 206 295.639V296.639C218.426 296.639 228.5 286.565 228.5 274.139H227.5Z" fill="url(#paint0_linear_927_189)"/>
<defs>
<linearGradient id="paint0_linear_927_189" x1="114.5" y1="-73.0001" x2="114.5" y2="497.961" gradientUnits="userSpaceOnUse">
<stop stop-color="#575757" stop-opacity="0"/>
<stop offset="1" stop-color="#C6FF40"/>
</linearGradient>
</defs>
</svg>
