<svg width="1581" height="190" viewBox="0 0 1581 190" fill="none" xmlns="http://www.w3.org/2000/svg">
<path d="M0.0980008 187V0.799987H47.978L103.306 129.012L161.294 0.799987H201.46V187H162.092V77.674L114.478 187H86.016L39.466 77.674V187H0.0980008ZM229.731 0.799987H269.099V187H229.731V0.799987ZM297.27 0.799987H330.786L406.596 109.328V0.799987H445.964V187H412.98L336.638 78.472V187H297.27V0.799987ZM538.01 0.799987C591.742 0.799987 632.44 40.168 632.44 93.102C632.44 147.1 591.742 187 538.01 187H474.17V0.799987H538.01ZM513.538 149.228H540.67C570.196 149.228 591.742 125.288 591.742 93.102C591.742 61.448 570.462 38.572 540.67 38.572H513.538V149.228ZM655.227 0.799987H769.341V38.572H694.595V77.408H761.095V115.18H694.595V187H655.227V0.799987ZM864.513 189.394C821.953 189.394 790.565 157.74 790.565 114.914V0.799987H829.933V114.914C829.933 135.662 844.829 151.09 864.513 151.09C884.197 151.09 898.827 135.662 898.827 114.914V0.799987H938.195V114.914C938.195 157.74 906.807 189.394 864.513 189.394ZM1051.81 187H1012.44V38.572H958.18V0.799987H1106.34V38.572H1051.81V187ZM1199.87 189.394C1157.31 189.394 1125.92 157.74 1125.92 114.914V0.799987H1165.29V114.914C1165.29 135.662 1180.19 151.09 1199.87 151.09C1219.55 151.09 1234.18 135.662 1234.18 114.914V0.799987H1273.55V114.914C1273.55 157.74 1242.16 189.394 1199.87 189.394ZM1301.78 187V0.799987H1373.6C1404.99 0.799987 1432.39 26.336 1432.39 58.256C1432.39 82.196 1420.95 100.816 1402.6 109.86L1451.28 187H1403.4L1361.37 115.978H1341.15V187H1301.78ZM1341.15 78.206H1372.27C1383.71 78.206 1392.49 69.428 1392.49 58.256C1392.49 47.084 1383.71 38.838 1372.27 38.838H1341.15V78.206ZM1465.96 0.799987H1580.07V38.572H1505.32V72.088H1571.82V109.86H1505.32V149.228H1580.07V187H1465.96V0.799987Z" fill="#262626"/>
</svg>
